<svg width="1080" height="1440" viewBox="0 0 1080 1440" xmlns="http://www.w3.org/2000/svg" role="img" aria-label="查六类公开证据">
<defs><pattern id="grid" width="90" height="120" patternUnits="userSpaceOnUse"><path d="M90 0H0V120" fill="none" stroke="#293038" stroke-width="1" opacity=".45"/></pattern><style>.cn{font-family:"PingFang SC","Hiragino Sans GB","Noto Sans CJK SC",sans-serif;letter-spacing:0}.mono{font-family:Menlo,Monaco,Consolas,monospace;letter-spacing:0}</style></defs>
<rect width="1080" height="1440" fill="#0B0D10"/><rect width="1080" height="1440" fill="url(#grid)"/><rect x="54" y="54" width="972" height="1332" fill="none" stroke="#3A414C" stroke-width="2"/>
<rect x="78" y="78" width="924" height="76" fill="#171B21" stroke="#3A414C"/><text x="104" y="126" fill="#35D39A" class="mono" font-size="23" font-weight="800">STEP 02 / SEARCH</text><text x="956" y="126" fill="#A9B0AD" class="mono" font-size="23" font-weight="700" text-anchor="end">04 / 07</text>
<text x="92" y="280" fill="#F7F5EF" class="cn" font-size="66" font-weight="900">它会查六类</text><text x="92" y="364" fill="#F7F5EF" class="cn" font-size="66" font-weight="900">公开证据</text>
<g class="cn"><g fill="#F3F0E8"><rect x="92" y="450" width="424" height="142"/><rect x="564" y="450" width="424" height="142"/><rect x="92" y="616" width="424" height="142"/><rect x="564" y="616" width="424" height="142"/><rect x="92" y="782" width="424" height="142"/><rect x="564" y="782" width="424" height="142"/></g>
<g fill="#111419" font-size="28" font-weight="850"><text x="126" y="505">论文 / 专利 / 标准</text><text x="598" y="505">监管 / 政府 / 协会</text><text x="126" y="671">公司文件 / 产品 / 年报</text><text x="598" y="671">行业 / 咨询 / 券商报告</text><text x="126" y="837">主流媒体 / 融资新闻</text><text x="598" y="837">客户 / 渠道 / 采购侧</text></g>
<g fill="#68706B" font-size="22" font-weight="650"><text x="126" y="548">原理、性能、标准口径</text><text x="598" y="548">政策状态与合规边界</text><text x="126" y="714">产品、经营与公司自述</text><text x="598" y="714">市场框架与二手数据</text><text x="126" y="880">事件线索，不直接当事实</text><text x="598" y="880">谁付费、怎么验证、如何采购</text></g></g>
<rect x="92" y="980" width="896" height="202" fill="#171B21" stroke="#3A414C"/><text x="124" y="1028" fill="#35D39A" class="mono" font-size="21" font-weight="850">SOURCE LADDER</text><text x="124" y="1082" fill="#E6E9E3" class="cn" font-size="25" font-weight="800">论文 / 监管 / 公告  ＞  公司文件  ＞  行业报告</text><text x="124" y="1126" fill="#E6E9E3" class="cn" font-size="25" font-weight="800">＞  主流媒体  ＞  融资新闻  ＞  自媒体</text><text x="124" y="1164" fill="#A9B0AD" class="cn" font-size="21" font-weight="650">不同来源承担不同角色，不能把线索伪装成事实。</text>
<rect x="78" y="1276" width="924" height="86" fill="#171B21" stroke="#3A414C"/><text x="104" y="1329" fill="#F7F5EF" class="mono" font-size="27" font-weight="800">JVC ANALYST</text><text x="956" y="1329" fill="#A9B0AD" class="mono" font-size="21" font-weight="700" text-anchor="end">SIX SOURCE TYPES</text>
</svg>

