<svg width="1080" height="1440" viewBox="0 0 1080 1440" fill="none" xmlns="http://www.w3.org/2000/svg" role="img" aria-label="项目来了 先扫赛道">
<rect width="1080" height="1440" fill="#0F1115"/>
<path d="M90 0V1440" stroke="#2A3038" stroke-width="1" opacity="0.42"/>
<path d="M180 0V1440" stroke="#2A3038" stroke-width="1" opacity="0.42"/>
<path d="M270 0V1440" stroke="#2A3038" stroke-width="1" opacity="0.42"/>
<path d="M360 0V1440" stroke="#2A3038" stroke-width="1" opacity="0.42"/>
<path d="M450 0V1440" stroke="#2A3038" stroke-width="1" opacity="0.42"/>
<path d="M540 0V1440" stroke="#2A3038" stroke-width="1" opacity="0.42"/>
<path d="M630 0V1440" stroke="#2A3038" stroke-width="1" opacity="0.42"/>
<path d="M720 0V1440" stroke="#2A3038" stroke-width="1" opacity="0.42"/>
<path d="M810 0V1440" stroke="#2A3038" stroke-width="1" opacity="0.42"/>
<path d="M900 0V1440" stroke="#2A3038" stroke-width="1" opacity="0.42"/>
<path d="M990 0V1440" stroke="#2A3038" stroke-width="1" opacity="0.42"/>
<path d="M0 120H1080" stroke="#2A3038" stroke-width="1" opacity="0.42"/>
<path d="M0 240H1080" stroke="#2A3038" stroke-width="1" opacity="0.42"/>
<path d="M0 360H1080" stroke="#2A3038" stroke-width="1" opacity="0.42"/>
<path d="M0 480H1080" stroke="#2A3038" stroke-width="1" opacity="0.42"/>
<path d="M0 600H1080" stroke="#2A3038" stroke-width="1" opacity="0.42"/>
<path d="M0 720H1080" stroke="#2A3038" stroke-width="1" opacity="0.42"/>
<path d="M0 840H1080" stroke="#2A3038" stroke-width="1" opacity="0.42"/>
<path d="M0 960H1080" stroke="#2A3038" stroke-width="1" opacity="0.42"/>
<path d="M0 1080H1080" stroke="#2A3038" stroke-width="1" opacity="0.42"/>
<path d="M0 1200H1080" stroke="#2A3038" stroke-width="1" opacity="0.42"/>
<path d="M0 1320H1080" stroke="#2A3038" stroke-width="1" opacity="0.42"/>
<rect x="54" y="54" width="972" height="1332" fill="none" stroke="#3A414C" stroke-width="2"/>
<rect x="78" y="78" width="924" height="76" fill="#171B21" stroke="#3A414C"/>
<text x="104" y="126" fill="#4C8DFF" font-family="Menlo, Monaco, Consolas, monospace" font-size="24" font-weight="800" text-anchor="start" letter-spacing="0">STAGE 1 / TRACK</text>
<text x="956" y="126" fill="#A9B0AD" font-family="Menlo, Monaco, Consolas, monospace" font-size="24" font-weight="700" text-anchor="end" letter-spacing="0">FILE 02</text>
<text x="92" y="272" fill="#F7F5EF" font-family="PingFang SC, Hiragino Sans GB, Noto Sans CJK SC, Arial Unicode MS, sans-serif" font-size="78" font-weight="900" text-anchor="start" letter-spacing="0">项目来了</text>
<text x="92" y="366" fill="#F7F5EF" font-family="PingFang SC, Hiragino Sans GB, Noto Sans CJK SC, Arial Unicode MS, sans-serif" font-size="78" font-weight="900" text-anchor="start" letter-spacing="0">先扫赛道</text>
<text x="94" y="480" fill="#C3C8C3" font-family="PingFang SC, Hiragino Sans GB, Noto Sans CJK SC, Arial Unicode MS, sans-serif" font-size="34" font-weight="600" text-anchor="start" letter-spacing="0">先回答：这个公司到底处在哪条产业链和技术路线里？</text>
<rect x="92" y="592" width="128" height="10" fill="#4C8DFF"/>
<rect x="92" y="626" width="896" height="128" fill="#F4F0E6"/>
<rect x="92" y="626" width="12" height="128" fill="#4C8DFF"/>
<text x="126" y="672" fill="#101317" font-family="Menlo, Monaco, Consolas, monospace" font-size="30" font-weight="900" text-anchor="start" letter-spacing="0">/jvc-track-research</text>
<text x="126" y="709" fill="#68706B" font-family="PingFang SC, Hiragino Sans GB, Noto Sans CJK SC, Arial Unicode MS, sans-serif" font-size="25" font-weight="600" text-anchor="start" letter-spacing="0">搭行业定义、技术路线、产业链、趋势和关键玩家</text>
<rect x="92" y="774" width="896" height="128" fill="#F4F0E6"/>
<rect x="92" y="774" width="12" height="128" fill="#4C8DFF"/>
<text x="126" y="820" fill="#101317" font-family="Menlo, Monaco, Consolas, monospace" font-size="30" font-weight="900" text-anchor="start" letter-spacing="0">/jvc-knowledge-tree-builder</text>
<text x="126" y="857" fill="#68706B" font-family="PingFang SC, Hiragino Sans GB, Noto Sans CJK SC, Arial Unicode MS, sans-serif" font-size="25" font-weight="600" text-anchor="start" letter-spacing="0">把已有本地资料整理成知识树、证据索引和开放问题</text>
<rect x="92" y="922" width="896" height="128" fill="#F4F0E6"/>
<rect x="92" y="922" width="12" height="128" fill="#4C8DFF"/>
<text x="126" y="968" fill="#101317" font-family="Menlo, Monaco, Consolas, monospace" font-size="30" font-weight="900" text-anchor="start" letter-spacing="0">/jvc-comps-dd</text>
<text x="126" y="1005" fill="#68706B" font-family="PingFang SC, Hiragino Sans GB, Noto Sans CJK SC, Arial Unicode MS, sans-serif" font-size="25" font-weight="600" text-anchor="start" letter-spacing="0">把直接竞品、可比公司、上下游和海外标杆放进表格</text>
<rect x="92" y="1094" width="896" height="122" fill="#171B21" stroke="#3A414C"/>
<text x="124" y="1134" fill="#4C8DFF" font-family="Menlo, Monaco, Consolas, monospace" font-size="22" font-weight="800" text-anchor="start" letter-spacing="0">PROMPT</text>
<text x="124" y="1174" fill="#E6E9E3" font-family="PingFang SC, Hiragino Sans GB, Noto Sans CJK SC, Arial Unicode MS, sans-serif" font-size="23" font-weight="700" text-anchor="start" letter-spacing="0">先做赛道扫描，再把已有资料夹整理成 knowledge tree 和 comps。</text>
<rect x="78" y="1276" width="924" height="86" fill="#171B21" stroke="#3A414C"/>
<text x="104" y="1329" fill="#F7F5EF" font-family="Menlo, Monaco, Consolas, monospace" font-size="28" font-weight="800" text-anchor="start" letter-spacing="0">JVC ANALYST</text>
<text x="956" y="1329" fill="#A9B0AD" font-family="Menlo, Monaco, Consolas, monospace" font-size="22" font-weight="700" text-anchor="end" letter-spacing="0">TRACK → COMPANY → MODEL → MEMO</text>
</svg>