<svg width="1080" height="1440" viewBox="0 0 1080 1440" fill="none" xmlns="http://www.w3.org/2000/svg" role="img" aria-label="然后做 正反尽调">
<rect width="1080" height="1440" fill="#0F1115"/>
<path d="M90 0V1440" stroke="#2A3038" stroke-width="1" opacity="0.42"/>
<path d="M180 0V1440" stroke="#2A3038" stroke-width="1" opacity="0.42"/>
<path d="M270 0V1440" stroke="#2A3038" stroke-width="1" opacity="0.42"/>
<path d="M360 0V1440" stroke="#2A3038" stroke-width="1" opacity="0.42"/>
<path d="M450 0V1440" stroke="#2A3038" stroke-width="1" opacity="0.42"/>
<path d="M540 0V1440" stroke="#2A3038" stroke-width="1" opacity="0.42"/>
<path d="M630 0V1440" stroke="#2A3038" stroke-width="1" opacity="0.42"/>
<path d="M720 0V1440" stroke="#2A3038" stroke-width="1" opacity="0.42"/>
<path d="M810 0V1440" stroke="#2A3038" stroke-width="1" opacity="0.42"/>
<path d="M900 0V1440" stroke="#2A3038" stroke-width="1" opacity="0.42"/>
<path d="M990 0V1440" stroke="#2A3038" stroke-width="1" opacity="0.42"/>
<path d="M0 120H1080" stroke="#2A3038" stroke-width="1" opacity="0.42"/>
<path d="M0 240H1080" stroke="#2A3038" stroke-width="1" opacity="0.42"/>
<path d="M0 360H1080" stroke="#2A3038" stroke-width="1" opacity="0.42"/>
<path d="M0 480H1080" stroke="#2A3038" stroke-width="1" opacity="0.42"/>
<path d="M0 600H1080" stroke="#2A3038" stroke-width="1" opacity="0.42"/>
<path d="M0 720H1080" stroke="#2A3038" stroke-width="1" opacity="0.42"/>
<path d="M0 840H1080" stroke="#2A3038" stroke-width="1" opacity="0.42"/>
<path d="M0 960H1080" stroke="#2A3038" stroke-width="1" opacity="0.42"/>
<path d="M0 1080H1080" stroke="#2A3038" stroke-width="1" opacity="0.42"/>
<path d="M0 1200H1080" stroke="#2A3038" stroke-width="1" opacity="0.42"/>
<path d="M0 1320H1080" stroke="#2A3038" stroke-width="1" opacity="0.42"/>
<rect x="54" y="54" width="972" height="1332" fill="none" stroke="#3A414C" stroke-width="2"/>
<rect x="78" y="78" width="924" height="76" fill="#171B21" stroke="#3A414C"/>
<text x="104" y="126" fill="#F2B84B" font-family="Menlo, Monaco, Consolas, monospace" font-size="24" font-weight="800" text-anchor="start" letter-spacing="0">STAGE 3 / DILIGENCE</text>
<text x="956" y="126" fill="#A9B0AD" font-family="Menlo, Monaco, Consolas, monospace" font-size="24" font-weight="700" text-anchor="end" letter-spacing="0">FILE 04</text>
<text x="92" y="272" fill="#F7F5EF" font-family="PingFang SC, Hiragino Sans GB, Noto Sans CJK SC, Arial Unicode MS, sans-serif" font-size="78" font-weight="900" text-anchor="start" letter-spacing="0">然后做</text>
<text x="92" y="366" fill="#F7F5EF" font-family="PingFang SC, Hiragino Sans GB, Noto Sans CJK SC, Arial Unicode MS, sans-serif" font-size="78" font-weight="900" text-anchor="start" letter-spacing="0">正反尽调</text>
<text x="94" y="480" fill="#C3C8C3" font-family="PingFang SC, Hiragino Sans GB, Noto Sans CJK SC, Arial Unicode MS, sans-serif" font-size="34" font-weight="600" text-anchor="start" letter-spacing="0">信息足够以后，才适合让 AI 帮你组织投资逻辑和反方攻击</text>
<text x="94" y="526" fill="#C3C8C3" font-family="PingFang SC, Hiragino Sans GB, Noto Sans CJK SC, Arial Unicode MS, sans-serif" font-size="34" font-weight="600" text-anchor="start" letter-spacing="0">。</text>
<rect x="92" y="592" width="128" height="10" fill="#F2B84B"/>
<rect x="92" y="636" width="896" height="156" fill="#F4F0E6"/>
<rect x="92" y="636" width="12" height="156" fill="#F2B84B"/>
<text x="126" y="683" fill="#101317" font-family="Menlo, Monaco, Consolas, monospace" font-size="30" font-weight="900" text-anchor="start" letter-spacing="0">/jvc-bull-case</text>
<text x="126" y="722" fill="#68706B" font-family="PingFang SC, Hiragino Sans GB, Noto Sans CJK SC, Arial Unicode MS, sans-serif" font-size="25" font-weight="600" text-anchor="start" letter-spacing="0">从行业趋势、技术节点、团队优势、商业化进展提炼为什么值得看</text>
<rect x="92" y="814" width="896" height="156" fill="#F4F0E6"/>
<rect x="92" y="814" width="12" height="156" fill="#F2B84B"/>
<text x="126" y="861" fill="#101317" font-family="Menlo, Monaco, Consolas, monospace" font-size="30" font-weight="900" text-anchor="start" letter-spacing="0">/jvc-bear-case</text>
<text x="126" y="900" fill="#68706B" font-family="PingFang SC, Hiragino Sans GB, Noto Sans CJK SC, Arial Unicode MS, sans-serif" font-size="25" font-weight="600" text-anchor="start" letter-spacing="0">用 LP、竞品 CEO、怀疑论同行、IC boss 四个角色找最强不投理由</text>
<rect x="92" y="1014" width="896" height="122" fill="#171B21" stroke="#3A414C"/>
<text x="124" y="1054" fill="#F2B84B" font-family="Menlo, Monaco, Consolas, monospace" font-size="22" font-weight="800" text-anchor="start" letter-spacing="0">PROMPT</text>
<text x="124" y="1094" fill="#E6E9E3" font-family="PingFang SC, Hiragino Sans GB, Noto Sans CJK SC, Arial Unicode MS, sans-serif" font-size="23" font-weight="700" text-anchor="start" letter-spacing="0">基于赛道、竞品和访谈事实，同时写 bull case 和 bear case。</text>
<rect x="78" y="1276" width="924" height="86" fill="#171B21" stroke="#3A414C"/>
<text x="104" y="1329" fill="#F7F5EF" font-family="Menlo, Monaco, Consolas, monospace" font-size="28" font-weight="800" text-anchor="start" letter-spacing="0">JVC ANALYST</text>
<text x="956" y="1329" fill="#A9B0AD" font-family="Menlo, Monaco, Consolas, monospace" font-size="22" font-weight="700" text-anchor="end" letter-spacing="0">TRACK → COMPANY → MODEL → MEMO</text>
</svg>