<svg width="1080" height="1440" viewBox="0 0 1080 1440" fill="none" xmlns="http://www.w3.org/2000/svg" role="img" aria-label="最后才写 IC memo">
<rect width="1080" height="1440" fill="#0F1115"/>
<path d="M90 0V1440" stroke="#2A3038" stroke-width="1" opacity="0.42"/>
<path d="M180 0V1440" stroke="#2A3038" stroke-width="1" opacity="0.42"/>
<path d="M270 0V1440" stroke="#2A3038" stroke-width="1" opacity="0.42"/>
<path d="M360 0V1440" stroke="#2A3038" stroke-width="1" opacity="0.42"/>
<path d="M450 0V1440" stroke="#2A3038" stroke-width="1" opacity="0.42"/>
<path d="M540 0V1440" stroke="#2A3038" stroke-width="1" opacity="0.42"/>
<path d="M630 0V1440" stroke="#2A3038" stroke-width="1" opacity="0.42"/>
<path d="M720 0V1440" stroke="#2A3038" stroke-width="1" opacity="0.42"/>
<path d="M810 0V1440" stroke="#2A3038" stroke-width="1" opacity="0.42"/>
<path d="M900 0V1440" stroke="#2A3038" stroke-width="1" opacity="0.42"/>
<path d="M990 0V1440" stroke="#2A3038" stroke-width="1" opacity="0.42"/>
<path d="M0 120H1080" stroke="#2A3038" stroke-width="1" opacity="0.42"/>
<path d="M0 240H1080" stroke="#2A3038" stroke-width="1" opacity="0.42"/>
<path d="M0 360H1080" stroke="#2A3038" stroke-width="1" opacity="0.42"/>
<path d="M0 480H1080" stroke="#2A3038" stroke-width="1" opacity="0.42"/>
<path d="M0 600H1080" stroke="#2A3038" stroke-width="1" opacity="0.42"/>
<path d="M0 720H1080" stroke="#2A3038" stroke-width="1" opacity="0.42"/>
<path d="M0 840H1080" stroke="#2A3038" stroke-width="1" opacity="0.42"/>
<path d="M0 960H1080" stroke="#2A3038" stroke-width="1" opacity="0.42"/>
<path d="M0 1080H1080" stroke="#2A3038" stroke-width="1" opacity="0.42"/>
<path d="M0 1200H1080" stroke="#2A3038" stroke-width="1" opacity="0.42"/>
<path d="M0 1320H1080" stroke="#2A3038" stroke-width="1" opacity="0.42"/>
<rect x="54" y="54" width="972" height="1332" fill="none" stroke="#3A414C" stroke-width="2"/>
<rect x="78" y="78" width="924" height="76" fill="#171B21" stroke="#3A414C"/>
<text x="104" y="126" fill="#31D08A" font-family="Menlo, Monaco, Consolas, monospace" font-size="24" font-weight="800" text-anchor="start" letter-spacing="0">STAGE 5 / SYNTHESIS</text>
<text x="956" y="126" fill="#A9B0AD" font-family="Menlo, Monaco, Consolas, monospace" font-size="24" font-weight="700" text-anchor="end" letter-spacing="0">FILE 06</text>
<text x="92" y="272" fill="#F7F5EF" font-family="PingFang SC, Hiragino Sans GB, Noto Sans CJK SC, Arial Unicode MS, sans-serif" font-size="78" font-weight="900" text-anchor="start" letter-spacing="0">最后才写</text>
<text x="92" y="366" fill="#F7F5EF" font-family="PingFang SC, Hiragino Sans GB, Noto Sans CJK SC, Arial Unicode MS, sans-serif" font-size="78" font-weight="900" text-anchor="start" letter-spacing="0">IC memo</text>
<text x="94" y="480" fill="#C3C8C3" font-family="PingFang SC, Hiragino Sans GB, Noto Sans CJK SC, Arial Unicode MS, sans-serif" font-size="34" font-weight="600" text-anchor="start" letter-spacing="0">IC memo 不是孤立生成，是把前面材料按链条重组</text>
<rect x="92" y="592" width="128" height="10" fill="#31D08A"/>
<rect x="92" y="636" width="896" height="86" fill="#F4F0E6"/>
<rect x="92" y="636" width="82" height="86" fill="#31D08A"/>
<text x="133" y="691" fill="#0F1115" font-family="Menlo, Monaco, Consolas, monospace" font-size="29" font-weight="900" text-anchor="middle" letter-spacing="0">A</text>
<text x="206" y="671" fill="#101317" font-family="PingFang SC, Hiragino Sans GB, Noto Sans CJK SC, Arial Unicode MS, sans-serif" font-size="27" font-weight="900" text-anchor="start" letter-spacing="0">赛道判断</text>
<text x="206" y="704" fill="#68706B" font-family="Menlo, Monaco, Consolas, monospace" font-size="21" font-weight="800" text-anchor="start" letter-spacing="0">track + tree + comps</text>
<path d="M538 726V744" stroke="#31D08A" stroke-width="5"/>
<rect x="92" y="748" width="896" height="86" fill="#F4F0E6"/>
<rect x="92" y="748" width="82" height="86" fill="#31D08A"/>
<text x="133" y="803" fill="#0F1115" font-family="Menlo, Monaco, Consolas, monospace" font-size="29" font-weight="900" text-anchor="middle" letter-spacing="0">B</text>
<text x="206" y="783" fill="#101317" font-family="PingFang SC, Hiragino Sans GB, Noto Sans CJK SC, Arial Unicode MS, sans-serif" font-size="27" font-weight="900" text-anchor="start" letter-spacing="0">公司事实</text>
<text x="206" y="816" fill="#68706B" font-family="Menlo, Monaco, Consolas, monospace" font-size="21" font-weight="800" text-anchor="start" letter-spacing="0">prescreen + interviews</text>
<path d="M538 838V856" stroke="#31D08A" stroke-width="5"/>
<rect x="92" y="860" width="896" height="86" fill="#F4F0E6"/>
<rect x="92" y="860" width="82" height="86" fill="#31D08A"/>
<text x="133" y="915" fill="#0F1115" font-family="Menlo, Monaco, Consolas, monospace" font-size="29" font-weight="900" text-anchor="middle" letter-spacing="0">C</text>
<text x="206" y="895" fill="#101317" font-family="PingFang SC, Hiragino Sans GB, Noto Sans CJK SC, Arial Unicode MS, sans-serif" font-size="27" font-weight="900" text-anchor="start" letter-spacing="0">正反观点</text>
<text x="206" y="928" fill="#68706B" font-family="Menlo, Monaco, Consolas, monospace" font-size="21" font-weight="800" text-anchor="start" letter-spacing="0">bull + bear</text>
<path d="M538 950V968" stroke="#31D08A" stroke-width="5"/>
<rect x="92" y="972" width="896" height="86" fill="#F4F0E6"/>
<rect x="92" y="972" width="82" height="86" fill="#31D08A"/>
<text x="133" y="1027" fill="#0F1115" font-family="Menlo, Monaco, Consolas, monospace" font-size="29" font-weight="900" text-anchor="middle" letter-spacing="0">D</text>
<text x="206" y="1007" fill="#101317" font-family="PingFang SC, Hiragino Sans GB, Noto Sans CJK SC, Arial Unicode MS, sans-serif" font-size="27" font-weight="900" text-anchor="start" letter-spacing="0">模型假设</text>
<text x="206" y="1040" fill="#68706B" font-family="Menlo, Monaco, Consolas, monospace" font-size="21" font-weight="800" text-anchor="start" letter-spacing="0">sizing + ROI</text>
<path d="M538 1062V1080" stroke="#31D08A" stroke-width="5"/>
<rect x="92" y="1084" width="896" height="86" fill="#F4F0E6"/>
<rect x="92" y="1084" width="82" height="86" fill="#31D08A"/>
<text x="133" y="1139" fill="#0F1115" font-family="Menlo, Monaco, Consolas, monospace" font-size="29" font-weight="900" text-anchor="middle" letter-spacing="0">E</text>
<text x="206" y="1119" fill="#101317" font-family="PingFang SC, Hiragino Sans GB, Noto Sans CJK SC, Arial Unicode MS, sans-serif" font-size="27" font-weight="900" text-anchor="start" letter-spacing="0">投决初稿</text>
<text x="206" y="1152" fill="#68706B" font-family="Menlo, Monaco, Consolas, monospace" font-size="21" font-weight="800" text-anchor="start" letter-spacing="0">ic-memo</text>
<rect x="78" y="1276" width="924" height="86" fill="#171B21" stroke="#3A414C"/>
<text x="104" y="1329" fill="#F7F5EF" font-family="Menlo, Monaco, Consolas, monospace" font-size="28" font-weight="800" text-anchor="start" letter-spacing="0">JVC ANALYST</text>
<text x="956" y="1329" fill="#A9B0AD" font-family="Menlo, Monaco, Consolas, monospace" font-size="22" font-weight="700" text-anchor="end" letter-spacing="0">TRACK → COMPANY → MODEL → MEMO</text>
</svg>